<svg xmlns="http://www.w3.org/2000/svg" version="1.1" id="Capa_1" x="0px" y="0px" viewBox="0 0 512 512"
     style="enable-background:new 0 0 512 512;" xml:space="preserve">
<g>
	<g>
		<g>
			<path d="M490.667,225.965V42.667C490.667,19.146,471.531,0,448,0H64C40.469,0,21.333,19.146,21.333,42.667v183.298     C8.944,230.383,0,242.112,0,256s8.944,25.617,21.333,30.035v183.298C21.333,492.854,40.469,512,64,512h384     c23.531,0,42.667-19.146,42.667-42.667V286.035C503.056,281.617,512,269.888,512,256S503.056,230.383,490.667,225.965z      M42.667,42.667c0-11.771,9.573-21.333,21.333-21.333h384c11.76,0,21.333,9.563,21.333,21.333V224H42.667V42.667z      M426.667,245.333v21.333H85.333v-21.333H426.667z M32,266.667c-5.885,0-10.667-4.792-10.667-10.667S26.115,245.333,32,245.333     h32v21.333H32z M469.333,469.333c0,11.771-9.573,21.333-21.333,21.333H64c-11.76,0-21.333-9.563-21.333-21.333V288h426.667     V469.333z M480,266.667h-32v-21.333h32c5.885,0,10.667,4.792,10.667,10.667S485.885,266.667,480,266.667z"/>
            <path d="M416,64H96c-5.896,0-10.667,4.771-10.667,10.667v106.667C85.333,187.229,90.104,192,96,192h320     c5.896,0,10.667-4.771,10.667-10.667V74.667C426.667,68.771,421.896,64,416,64z M405.333,170.667H106.667V85.333h298.667V170.667     z"/>
            <path d="M160,469.333h192c5.896,0,10.667-4.771,10.667-10.667v-128c0-5.896-4.771-10.667-10.667-10.667H160     c-5.896,0-10.667,4.771-10.667,10.667v128C149.333,464.563,154.104,469.333,160,469.333z M170.667,341.333h170.667V448H170.667     V341.333z"/>
            <path d="M96,384c17.646,0,32-14.354,32-32c0-17.646-14.354-32-32-32s-32,14.354-32,32C64,369.646,78.354,384,96,384z M96,341.333     c5.885,0,10.667,4.792,10.667,10.667S101.885,362.667,96,362.667S85.333,357.875,85.333,352S90.115,341.333,96,341.333z"/>
            <path d="M74.667,448h10.667v10.667c0,5.896,4.771,10.667,10.667,10.667s10.667-4.771,10.667-10.667V448h10.667     c5.896,0,10.667-4.771,10.667-10.667c0-5.896-4.771-10.667-10.667-10.667h-10.667V416c0-5.896-4.771-10.667-10.667-10.667     S85.333,410.104,85.333,416v10.667H74.667c-5.896,0-10.667,4.771-10.667,10.667C64,443.229,68.771,448,74.667,448z"/>
            <circle cx="416" cy="330.667" r="10.667"/>
            <circle cx="256" cy="42.667" r="10.667"/>
            <circle cx="416" cy="373.333" r="10.667"/>
            <circle cx="394.667" cy="437.333" r="10.667"/>
            <circle cx="437.333" cy="352" r="10.667"/>
            <circle cx="394.667" cy="352" r="10.667"/>
		</g>
	</g>
</g>
    <g>
</g>
    <g>
</g>
    <g>
</g>
    <g>
</g>
    <g>
</g>
    <g>
</g>
    <g>
</g>
    <g>
</g>
    <g>
</g>
    <g>
</g>
    <g>
</g>
    <g>
</g>
    <g>
</g>
    <g>
</g>
    <g>
</g>
</svg>