<svg xmlns="http://www.w3.org/2000/svg" enable-background="new 0 0 515.91 728.5" height="512" id="Layer_1" version="1.1"
     viewBox="0 0 512.00003 512" width="512" xml:space="preserve"><defs id="defs7"/>
    <rect height="512" id="rect2984" rx="64" ry="64" style="fill:#7eb900;fill-opacity:1;fill-rule:nonzero;stroke:none"
          width="512" x="1.5e-005" y="0"/>
    <path d="m 260.04891,60.045616 c -22.21306,-0.33774 -44.71467,2.81673 -65.51846,9.50603 -18.16741,5.84162 -33.94368,12.1701 -35.09915,14.03967 -1.15542,1.86956 10.99361,6.9132 27.0556,11.26103 16.06199,4.34769 37.57384,12.944144 47.8226,19.011994 23.36833,13.83532 22.45683,13.78592 40.80279,2.48613 20.90333,-12.87487 72.98593,-28.797134 84.96921,-25.885564 5.3807,1.30737 -3.56897,-4.10292 -19.88952,-12.13847 -23.58725,-11.61337 -51.58346,-17.84656 -80.14307,-18.28082 z m 126.06447,44.897684 -17.11084,9.21352 c -9.46179,5.06739 -27.81407,18.92668 -40.65653,30.71178 l -23.25319,21.3519 26.03188,32.46681 c 53.8742,67.0043 83.56692,124.4532 84.09174,162.47981 l 0.29249,18.1346 13.60093,-20.3282 c 20.98027,-31.34741 28.47659,-63.44771 26.61686,-113.19481 -1.38664,-37.0909 -3.6447,-47.3095 -16.52586,-73.4157 -8.22167,-16.66291 -23.44825,-38.63111 -33.92918,-48.84637 l -19.1583,-18.57334 z m -255.63889,2.92491 c -3.65767,-0.13202 -6.8353,1.49764 -12.13846,4.97239 -14.68334,9.62087 -41.653109,50.623 -53.087479,80.72801 -18.4615,48.6066 -8.43672,123.4464 22.52196,168.91471 12.20449,17.9246 14.925429,19.7796 10.96849,7.3124 -7.84227,-24.7089 32.631599,-106.07511 85.261719,-171.25471 l 26.32435,-32.32051 -24.56941,-21.9369 c -13.4521,-12.0486 -31.54576,-25.74915 -40.21778,-30.41926 -7.29524,-3.92878 -11.40573,-5.86439 -15.06339,-5.99613 z m 125.47951,101.9338 -33.05172,28.6643 c -58.90187,50.8213 -112.75605,119.62401 -112.75605,144.19911 0,18.3568 52.99294,52.3589 100.47135,64.4947 50.58337,12.9295 121.58475,-0.9498 164.96605,-32.1743 35.96851,-25.8889 37.05938,-34.9663 9.94477,-75.90191 -16.71109,-25.229 -91.31238,-102.6384 -114.65726,-118.8983 L 255.954,209.80201 z"
          id="path3797" style="fill:#ffffff;fill-opacity:1"/></svg>