<svg xmlns="http://www.w3.org/2000/svg" height="512pt" viewBox="0 0 512 512" width="512pt"  >
    <path d="m127.46875 15v482h257.0625v-482zm0 0" fill="#c5e1e6"/>
    <path d="m256 15v482h128.53125v-482zm0 0" fill="#8db9c4"/>
    <path d="m456.832031 0h-401.667969c-30.417968 0-55.164062 24.75-55.164062 55.167969v200.832031c0 8.285156 6.714844 15 15 15h482c8.28125 0 15-6.714844 15-15v-200.832031c0-30.417969-24.746094-55.167969-55.167969-55.167969zm-314.363281 30h227.0625v211h-227.0625zm0 0"
          fill="#3d5959"/>
    <path d="m456.832031 0h-200.832031v30h113.53125v211h-113.53125v30h241c8.28125 0 15-6.714844 15-15v-200.832031c0-30.417969-24.746094-55.167969-55.167969-55.167969zm0 0"
          fill="#293939"/>
    <path d="m497 241h-482c-8.285156 0-15 6.714844-15 15v200.832031c0 30.421875 24.746094 55.167969 55.164062 55.167969h401.667969c30.421875 0 55.167969-24.746094 55.167969-55.167969v-200.832031c0-8.285156-6.71875-15-15-15zm-354.53125 30h227.0625v211h-227.0625zm0 0"
          fill="#ff4949"/>
    <path d="m497 241h-241v30h113.53125v211h-113.53125v30h200.832031c30.421875 0 55.167969-24.746094 55.167969-55.167969v-200.832031c0-8.285156-6.71875-15-15-15zm0 0"
          fill="#f30051"/>
    <path d="m71.226562 182.628906c-3.949218 0-7.8125-1.601562-10.597656-4.390625-2.792968-2.789062-4.402344-6.660156-4.402344-10.609375 0-3.949218 1.609376-7.808594 4.402344-10.609375 2.785156-2.789062 6.65625-4.390625 10.597656-4.390625 3.949219 0 7.820313 1.601563 10.609376 4.390625 2.792968 2.800781 4.390624 6.660157 4.390624 10.609375 0 3.949219-1.597656 7.820313-4.390624 10.609375-2.789063 2.789063-6.648438 4.390625-10.609376 4.390625zm0 0"
          fill="#c5e1e6"/>
    <path d="m440.765625 182.628906c-3.949219 0-7.820313-1.601562-10.609375-4.390625-2.789062-2.789062-4.390625-6.660156-4.390625-10.609375 0-3.949218 1.601563-7.808594 4.390625-10.609375 2.800781-2.789062 6.660156-4.390625 10.609375-4.390625 3.953125 0 7.8125 1.601563 10.601563 4.390625 2.800781 2.800781 4.398437 6.660157 4.398437 10.609375 0 3.949219-1.601563 7.820313-4.398437 10.609375-2.78125 2.789063-6.648438 4.390625-10.601563 4.390625zm0 0"
          fill="#8db9c4"/>
    <path d="m71.234375 118.371094c-3.949219 0-7.820313-1.609375-10.605469-4.402344-2.792968-2.789062-4.394531-6.660156-4.394531-10.597656 0-3.949219 1.601563-7.820313 4.394531-10.609375 2.785156-2.792969 6.65625-4.390625 10.605469-4.390625 3.941406 0 7.8125 1.597656 10.601563 4.390625 2.792968 2.789062 4.398437 6.660156 4.398437 10.609375 0 3.9375-1.605469 7.808594-4.398437 10.597656-2.789063 2.792969-6.648438 4.402344-10.601563 4.402344zm0 0"
          fill="#c5e1e6"/>
    <path d="m440.765625 118.371094c-3.949219 0-7.820313-1.609375-10.609375-4.402344-2.789062-2.789062-4.390625-6.660156-4.390625-10.597656 0-3.949219 1.601563-7.820313 4.390625-10.609375 2.800781-2.792969 6.660156-4.390625 10.609375-4.390625 3.953125 0 7.8125 1.597656 10.613281 4.390625 2.785156 2.789062 4.386719 6.660156 4.386719 10.609375 0 3.9375-1.601563 7.808594-4.386719 10.597656-2.792968 2.792969-6.660156 4.402344-10.613281 4.402344zm0 0"
          fill="#8db9c4"/>
    <path d="m95.332031 361.5h-9.101562v-9.101562c0-8.285157-6.714844-15-15-15-8.285157 0-15 6.714843-15 15v9.101562h-9.097657c-8.285156 0-15 6.714844-15 15s6.714844 15 15 15h9.097657v9.101562c0 8.28125 6.714843 15 15 15 8.285156 0 15-6.71875 15-15v-9.101562h9.101562c8.28125 0 15-6.714844 15-15s-6.71875-15-15-15zm0 0"
          fill="#3d5959"/>
    <g fill="#293939">
        <path d="m440.765625 367.398438c-3.949219 0-7.820313-1.597657-10.609375-4.398438-2.789062-2.78125-4.390625-6.648438-4.390625-10.601562 0-3.949219 1.601563-7.820313 4.390625-10.609376 2.800781-2.789062 6.660156-4.390624 10.609375-4.390624 3.941406 0 7.8125 1.601562 10.613281 4.390624 2.785156 2.800782 4.386719 6.660157 4.386719 10.609376 0 3.949218-1.601563 7.8125-4.386719 10.601562-2.804687 2.800781-6.660156 4.398438-10.613281 4.398438zm0 0"/>
        <path d="m440.765625 415.601562c-3.949219 0-7.820313-1.601562-10.609375-4.390624-2.789062-2.800782-4.390625-6.671876-4.390625-10.609376 0-3.953124 1.601563-7.8125 4.390625-10.613281 2.800781-2.789062 6.660156-4.386719 10.609375-4.386719 3.941406 0 7.8125 1.597657 10.613281 4.386719 2.785156 2.792969 4.386719 6.660157 4.386719 10.613281 0 3.949219-1.601563 7.808594-4.386719 10.609376-2.804687 2.789062-6.675781 4.390624-10.613281 4.390624zm0 0"/>
        <path d="m416.664062 391.5c-3.945312 0-7.816406-1.601562-10.605468-4.390625-2.792969-2.800781-4.394532-6.671875-4.394532-10.609375 0-3.949219 1.601563-7.808594 4.394532-10.609375 2.789062-2.789063 6.660156-4.390625 10.605468-4.390625 3.949219 0 7.8125 1.601562 10.609376 4.390625 2.792968 2.789063 4.390624 6.660156 4.390624 10.609375s-1.597656 7.808594-4.390624 10.609375c-2.796876 2.789063-6.660157 4.390625-10.609376 4.390625zm0 0"/>
        <path d="m464.863281 391.5c-3.949219 0-7.816406-1.601562-10.605469-4.390625-2.789062-2.800781-4.394531-6.660156-4.394531-10.609375s1.605469-7.820312 4.394531-10.609375c2.789063-2.789063 6.65625-4.390625 10.605469-4.390625 3.953125 0 7.8125 1.601562 10.613281 4.390625 2.789063 2.789063 4.386719 6.660156 4.386719 10.609375s-1.597656 7.808594-4.386719 10.609375c-2.800781 2.789063-6.660156 4.390625-10.613281 4.390625zm0 0"/>
    </g>
</svg>