<svg xmlns="http://www.w3.org/2000/svg" enable-background="new 0 0 512 512" height="512"
     viewBox="0 0 512 512" width="512" style="fill: currentColor">
    <g>
        <path d="m273 81h-243c-16.542 0-30 13.458-30 30v203c0 16.542 13.458 30 30 30h75v57h-33c-8.284 0-15 6.716-15 15s6.716 15 15 15h160c8.284 0 15-6.716 15-15s-6.716-15-15-15h-33v-57h74c16.542 0 30-13.458 30-30v-203c0-16.542-13.458-30-30-30zm-104 320h-34v-57h34zm104-87c-6.892 0-235.917 0-243 0v-203h243c.019 213.466.1 203 0 203z"/>
        <path d="m481 81h-114c-16.542 0-30 13.458-30 30v290c0 16.542 13.458 30 30 30h114c16.804 0 31-13.738 31-30v-290c0-16.262-14.196-30-31-30zm1 30.473v33.527h-115v-34c121.826 0 114.221-.263 115 .473zm-115 289.527v-226h115v225.527c-.778.735 6.754.473-115 .473z"/>
        <path d="m438.71 349.07c-1.88-9.017-10.859-13.914-19.06-11.42-8.466 2.699-12.249 11.169-10 18.71 2.801 8.593 11.274 12.206 18.71 9.99 7.982-2.601 11.707-10.03 10.35-17.28z"/>
        <path d="m438.71 285.07c-1.88-9.017-10.859-13.914-19.06-11.42-8.466 2.699-12.249 11.169-10 18.71 2.801 8.594 11.28 12.204 18.71 9.99 7.982-2.601 11.707-10.03 10.35-17.28z"/>
    </g>
</svg>