<svg xmlns="http://www.w3.org/2000/svg" version="1.1" x="0px" y="0px" viewBox="0 0 512 512"
     style="fill: currentColor;enable-background:new 0 0 512 512;" xml:space="preserve">
<g>
	<g>
		<path d="M105.667,181H0v30h105.667c8.271,0,15,6.729,15,15s-6.729,15-15,15H45c-24.813,0-45,20.187-45,45v45h30v-45    c0-8.271,6.729-15,15-15h60.667c24.812,0,45-20.187,45-45S130.48,181,105.667,181z"/>
	</g>
</g>
    <g>
	<g>
		<path d="M512,226c0-24.813-20.187-45-45-45H361.333v30H467c8.271,0,15,6.729,15,15s-6.729,15-15,15H361.333v30H467    c8.271,0,15,6.729,15,15s-6.729,15-15,15H361.333v30H467c24.813,0,45-20.187,45-45c0-11.517-4.354-22.032-11.495-30    C507.646,248.032,512,237.517,512,226z"/>
	</g>
</g>
    <g>
	<g>
		<path d="M263.5,181c-24.813,0-45,20.187-45,45v60c0,8.271-6.729,15-15,15h-67.833v30H203.5c24.813,0,45-20.187,45-45v-60    c0-8.271,6.729-15,15-15h67.833v-30H263.5z"/>
	</g>
</g>
    <g>
</g>
    <g>
</g>
    <g>
</g>
    <g>
</g>
    <g>
</g>
    <g>
</g>
    <g>
</g>
    <g>
</g>
    <g>
</g>
    <g>
</g>
    <g>
</g>
    <g>
</g>
    <g>
</g>
    <g>
</g>
    <g>
</g>
</svg>