<svg xmlns="http://www.w3.org/2000/svg" version="1.1" x="0px" y="0px" viewBox="0 0 512 512"
     style="fill: currentColor;enable-background:new 0 0 512 512;" xml:space="preserve">
<g>
	<g>
		<path d="M105.667,181H0v30h105.667c8.271,0,15,6.729,15,15s-6.729,15-15,15H45c-24.813,0-45,20.187-45,45v45h30v-45    c0-8.271,6.729-15,15-15h60.667c24.813,0,45-20.187,45-45S130.48,181,105.667,181z"/>
	</g>
</g>
    <g>
	<g>
		<path d="M263.5,181c-24.813,0-45,20.187-45,45v60c0,8.271-6.729,15-15,15h-67.833v30H203.5c24.813,0,45-20.187,45-45v-60    c0-8.271,6.729-15,15-15h67.833v-30H263.5z"/>
	</g>
</g>
    <g>
	<g>
		<path d="M482,270.998V211c0-16.542-13.458-30-30-30c-5.682,0-11.217,1.6-16.009,4.626l-94.999,60    C332.23,251.159,327,260.644,327,271c0,16.542,13.458,30,30,30h95v30h30v-30h30v-30L482,270.998z M452,270.997l-94.989-0.006    L452,211V270.997z"/>
	</g>
</g>
    <g>
</g>
    <g>
</g>
    <g>
</g>
    <g>
</g>
    <g>
</g>
    <g>
</g>
    <g>
</g>
    <g>
</g>
    <g>
</g>
    <g>
</g>
    <g>
</g>
    <g>
</g>
    <g>
</g>
    <g>
</g>
    <g>
</g>
</svg>