<svg xmlns="http://www.w3.org/2000/svg" version="1.1"  x="0px" y="0px" viewBox="0 0 512 512"
     style="fill: currentColor;enable-background:new 0 0 512 512;" xml:space="preserve">
<path style="fill:#D1DEE4;" d="M256,0l-60,256l60,256c141.385,0,256-114.615,256-256S397.385,0,256,0z"/>
    <path style="fill:#EFF6F9;" d="M0,256c0,141.385,114.615,256,256,256V0C114.615,0,0,114.615,0,256z"/>
    <g>
	<path style="fill:#838D92;"
          d="M74.888,74.888c0.043,0.018,0.086,0.039,0.129,0.057c0.019-0.019,0.038-0.037,0.057-0.055   C75.012,74.89,74.95,74.888,74.888,74.888z"/>
        <path style="fill:#838D92;"
              d="M74.888,437.112c0.018-0.043,0.039-0.086,0.057-0.129c-0.019-0.019-0.037-0.038-0.056-0.057   C74.889,436.988,74.888,437.05,74.888,437.112z"/>
        <path style="fill:#838D92;"
              d="M437.112,74.888c-0.062,0-0.124,0.002-0.186,0.002c0.019,0.019,0.038,0.037,0.057,0.055   C437.026,74.927,437.069,74.906,437.112,74.888z"/>
        <path style="fill:#838D92;"
              d="M437.111,436.926c-0.019,0.019-0.037,0.038-0.056,0.057c0.019,0.043,0.039,0.086,0.057,0.129   C437.112,437.05,437.111,436.988,437.111,436.926z"/>
</g>
    <path style="fill:#6BBF32;"
          d="M304.111,156.52c43.934-34.518,89.451-62.937,132.872-81.575c-0.019-0.019-0.038-0.037-0.057-0.055  C370.995,74.923,309.212,92.523,256,123.27l-20,33.25l20,40.798c78.327,71.452,146.501,159.163,181.055,239.665  c0.019-0.019,0.037-0.038,0.056-0.057C437.054,323.798,385.273,222.881,304.111,156.52z"/>
    <path style="fill:#A5ED73;"
          d="M75.074,74.89c-0.019,0.019-0.038,0.037-0.057,0.055C118.44,93.584,163.959,122,207.895,156.52  C126.729,222.881,74.946,323.796,74.889,436.926c0.019,0.019,0.037,0.038,0.056,0.057C109.499,356.481,177.674,268.769,256,197.317  c0,0.001,0-74.047,0-74.047C202.788,92.523,141.005,74.923,75.074,74.89z"/>
    <g>
</g>
    <g>
</g>
    <g>
</g>
    <g>
</g>
    <g>
</g>
    <g>
</g>
    <g>
</g>
    <g>
</g>
    <g>
</g>
    <g>
</g>
    <g>
</g>
    <g>
</g>
    <g>
</g>
    <g>
</g>
    <g>
</g>
</svg>